<?xml version="1.0" encoding="utf-8"?>
<!-- Generator: Adobe Illustrator 27.0.0, SVG Export Plug-In . SVG Version: 6.00 Build 0)  -->
<svg version="1.1" id="Calque_1" xmlns="http://www.w3.org/2000/svg" xmlns:xlink="http://www.w3.org/1999/xlink" x="0px" y="0px"
	 viewBox="0 0 40 40" style="enable-background:new 0 0 40 40;" xml:space="preserve">
<style type="text/css">
	.st0{filter:url(#Adobe_OpacityMaskFilter);}
	.st1{fill-rule:evenodd;clip-rule:evenodd;fill:#FFFFFF;}
	.st2{mask:url(#mask-2_00000057856426639811639230000010661302031755393156_);fill-rule:evenodd;clip-rule:evenodd;fill:#1D1D1B;}
	.st3{fill-rule:evenodd;clip-rule:evenodd;fill:#FEFEFE;}
</style>
<g id="_x2A_2025-LIEUX">
	<g id="Lieux-sans-Plan" transform="translate(-1565.000000, -5.000000)">
		<g id="API-logo" transform="translate(1565.000000, 5.000000)">
			<g id="Group-3">
				<g id="Clip-2">
				</g>
				<defs>
					<filter id="Adobe_OpacityMaskFilter" filterUnits="userSpaceOnUse" x="0" y="0" width="40" height="40">
						<feColorMatrix  type="matrix" values="1 0 0 0 0  0 1 0 0 0  0 0 1 0 0  0 0 0 1 0"/>
					</filter>
				</defs>
				
					<mask maskUnits="userSpaceOnUse" x="0" y="0" width="40" height="40" id="mask-2_00000057856426639811639230000010661302031755393156_">
					<g class="st0">
						<polygon id="path-1_00000087373252227400675000000012801599581393950864_" class="st1" points="0,0 40,0 40,40 0,40 						"/>
					</g>
				</mask>
				<path id="Fill-1" class="st2" d="M37.8,25.4L25.4,37.8c-3,3-7.8,3-10.8,0L2.2,25.4c-3-3-3-7.8,0-10.8L14.6,2.2c3-3,7.8-3,10.8,0
					l12.4,12.4C40.7,17.6,40.7,22.4,37.8,25.4"/>
			</g>
			<path id="Fill-4" class="st3" d="M13.2,19.6l-1.9-4.9l-1.9,4.9H13.2z M18.3,24.7h-5.2v-0.6c0.5,0,0.8-0.1,1.1-0.2
				c0.3-0.1,0.5-0.2,0.5-0.3c0-0.1,0-0.1,0-0.2c0-0.1,0-0.1-0.1-0.2l-1-2.8H9.2c-0.2,0.4-0.3,0.8-0.4,1.1c-0.1,0.3-0.2,0.6-0.3,0.8
				c-0.1,0.3-0.1,0.5-0.2,0.6c0,0.2,0,0.3,0,0.4c0,0.2,0.2,0.4,0.6,0.5c0.4,0.1,0.8,0.2,1.3,0.2v0.6H5.4v-0.6c0.2,0,0.3,0,0.6-0.1
				c0.2-0.1,0.4-0.1,0.6-0.2c0.2-0.2,0.4-0.3,0.5-0.5c0.1-0.2,0.3-0.4,0.4-0.7c0.6-1.6,1.3-3.3,2.1-5.3c0.8-2,1.4-3.7,2-5.2h0.7
				l4.2,10.8c0.1,0.2,0.2,0.4,0.3,0.6c0.1,0.1,0.3,0.3,0.5,0.4c0.1,0.1,0.3,0.2,0.5,0.2c0.2,0.1,0.4,0.1,0.5,0.1V24.7z"/>
			<path id="Fill-6" class="st3" d="M25,23.3c0.2-0.4,0.4-0.8,0.5-1.3c0.1-0.5,0.2-1,0.2-1.6c0-0.4,0-0.9-0.1-1.3
				c-0.1-0.5-0.2-0.8-0.4-1.2c-0.2-0.3-0.5-0.6-0.8-0.8c-0.3-0.2-0.7-0.3-1.2-0.3c-0.4,0-0.8,0.1-1.1,0.3c-0.3,0.2-0.6,0.4-0.8,0.7
				v5.1c0.1,0.2,0.1,0.3,0.3,0.5c0.1,0.2,0.3,0.3,0.4,0.4c0.2,0.1,0.4,0.3,0.6,0.4c0.2,0.1,0.5,0.1,0.8,0.1c0.3,0,0.6-0.1,1-0.3
				C24.5,23.9,24.8,23.6,25,23.3 M26.4,17.1c0.3,0.4,0.6,0.9,0.8,1.4c0.2,0.5,0.3,1.2,0.3,1.9c0,0.7-0.1,1.3-0.3,1.9
				c-0.2,0.6-0.5,1.1-0.9,1.5c-0.4,0.4-0.8,0.7-1.3,0.9c-0.5,0.2-1,0.3-1.5,0.3c-0.5,0-1-0.1-1.3-0.2c-0.3-0.1-0.6-0.3-0.8-0.4h-0.1
				V27c0,0.2,0,0.4,0.1,0.5c0.1,0.1,0.2,0.2,0.4,0.3c0.1,0.1,0.3,0.1,0.6,0.2c0.3,0,0.5,0.1,0.6,0.1v0.6h-4.9v-0.6
				c0.2,0,0.4,0,0.5,0c0.2,0,0.3,0,0.5-0.1c0.2-0.1,0.3-0.2,0.4-0.3c0.1-0.1,0.1-0.3,0.1-0.5v-9.3c0-0.2,0-0.3-0.1-0.5
				c-0.1-0.2-0.2-0.3-0.3-0.4c-0.1-0.1-0.3-0.1-0.4-0.2c-0.2,0-0.4-0.1-0.5-0.1v-0.6l3-0.2l0.1,0.1v1l0.1,0c0.3-0.4,0.7-0.6,1.1-0.9
				c0.5-0.2,0.9-0.4,1.3-0.4c0.5,0,1,0.1,1.5,0.3C25.7,16.4,26.1,16.7,26.4,17.1"/>
			<path id="Fill-8" class="st3" d="M31.9,12.5c0,0.3-0.1,0.6-0.3,0.9c-0.2,0.2-0.5,0.4-0.8,0.4c-0.3,0-0.6-0.1-0.8-0.4
				c-0.2-0.2-0.3-0.5-0.3-0.8c0-0.3,0.1-0.6,0.3-0.8c0.2-0.2,0.5-0.4,0.8-0.4c0.3,0,0.6,0.1,0.8,0.3C31.8,11.9,31.9,12.2,31.9,12.5
				L31.9,12.5z M33,24.7h-4.2v-0.6c0.1,0,0.3,0,0.4,0s0.3,0,0.4-0.1c0.2-0.1,0.3-0.1,0.4-0.3c0.1-0.1,0.1-0.3,0.1-0.5v-5.4
				c0-0.2,0-0.4-0.1-0.5c-0.1-0.2-0.2-0.3-0.4-0.4c-0.1-0.1-0.3-0.1-0.5-0.2c-0.2,0-0.4-0.1-0.6-0.1v-0.6l3.1-0.2l0.1,0.1v7.1
				c0,0.2,0,0.4,0.1,0.5c0.1,0.1,0.2,0.2,0.4,0.3c0.1,0.1,0.3,0.1,0.4,0.1c0.1,0,0.3,0.1,0.4,0.1V24.7z"/>
		</g>
	</g>
</g>
</svg>
